<svg width="14" height="22" viewBox="0 0 14 22" fill="none" xmlns="http://www.w3.org/2000/svg">
<path d="M9.55 11.11C10.77 11.33 11.79 11.93 12.61 12.91C13.45 13.89 13.87 15.04 13.87 16.36C13.87 17.44 13.61 18.41 13.09 19.27C12.59 20.11 11.83 20.78 10.81 21.28C9.81 21.76 8.59 22 7.15 22H0.46V0.939999H7.03C9.13 0.939999 10.71 1.43 11.77 2.41C12.85 3.37 13.39 4.62 13.39 6.16C13.39 7.5 13.03 8.59 12.31 9.43C11.59 10.25 10.67 10.81 9.55 11.11ZM1.81 10.51H7.09C8.67 10.51 9.88 10.14 10.72 9.4C11.58 8.64 12.01 7.6 12.01 6.28C12.01 5 11.59 3.99 10.75 3.25C9.91 2.51 8.64 2.14 6.94 2.14H1.81V10.51ZM7.06 20.83C8.76 20.83 10.09 20.43 11.05 19.63C12.03 18.81 12.52 17.69 12.52 16.27C12.52 14.87 12.02 13.76 11.02 12.94C10.04 12.1 8.69 11.68 6.97 11.68H1.81V20.83H7.06Z" fill="#D7EEE7"/>
</svg>
