<svg width="20" height="22" viewBox="0 0 20 22" fill="none" xmlns="http://www.w3.org/2000/svg">
<path d="M8.75 0.939999C10.97 0.939999 12.91 1.38 14.57 2.26C16.23 3.14 17.51 4.38 18.41 5.98C19.33 7.56 19.79 9.39 19.79 11.47C19.79 13.53 19.33 15.36 18.41 16.96C17.51 18.56 16.22 19.8 14.54 20.68C12.88 21.56 10.95 22 8.75 22H0.86V0.939999H8.75ZM8.42 17.56C10.36 17.56 11.87 17.03 12.95 15.97C14.03 14.91 14.57 13.41 14.57 11.47C14.57 9.53 14.03 8.02 12.95 6.94C11.87 5.86 10.36 5.32 8.42 5.32H5.99V17.56H8.42Z" fill="#2ACB9D"/>
</svg>
