<svg width="23" height="23" viewBox="0 0 23 23" fill="none" xmlns="http://www.w3.org/2000/svg">
<path d="M11.82 22.21C9.84 22.21 8.02 21.75 6.36 20.83C4.72 19.91 3.41 18.63 2.43 16.99C1.47 15.33 0.99 13.47 0.99 11.41C0.99 9.35 1.47 7.5 2.43 5.86C3.41 4.22 4.72 2.94 6.36 2.02C8.02 1.1 9.84 0.64 11.82 0.64C13.8 0.64 15.61 1.1 17.25 2.02C18.91 2.94 20.21 4.22 21.15 5.86C22.11 7.5 22.59 9.35 22.59 11.41C22.59 13.47 22.11 15.33 21.15 16.99C20.19 18.63 18.89 19.91 17.25 20.83C15.61 21.75 13.8 22.21 11.82 22.21ZM11.82 17.53C13.5 17.53 14.84 16.97 15.84 15.85C16.86 14.73 17.37 13.25 17.37 11.41C17.37 9.55 16.86 8.07 15.84 6.97C14.84 5.85 13.5 5.29 11.82 5.29C10.12 5.29 8.76 5.84 7.74 6.94C6.74 8.04 6.24 9.53 6.24 11.41C6.24 13.27 6.74 14.76 7.74 15.88C8.76 16.98 10.12 17.53 11.82 17.53Z" fill="#2ACB9D"/>
</svg>
