<svg width="71" height="64" viewBox="0 0 71 64" fill="none" xmlns="http://www.w3.org/2000/svg">
<path d="M14.837 15.6846C16.9981 8.64736 25.765 6.27836 31.1763 11.2694L56.9947 35.0824C62.9195 40.5471 60.2762 50.4166 52.4132 52.1886L16.8189 60.2098C9.3266 61.8982 2.80655 54.8607 5.06113 47.5189L14.837 15.6846Z" fill="url(#paint0_linear)"/>
<g filter="url(#filter0_d)">
<rect x="16" y="28" width="27" height="3.48387" rx="1.74194" fill="#F3F6F9"/>
<path d="M16 36.7097C16 35.7476 16.7799 34.9677 17.7419 34.9677H41.2581C42.2201 34.9677 43 35.7476 43 36.7097V36.7097C43 37.6717 42.2201 38.4516 41.2581 38.4516H17.7419C16.7799 38.4516 16 37.6717 16 36.7097V36.7097Z" fill="#F3F6F9"/>
<rect x="16" y="41.9355" width="27" height="3.48387" rx="1.74194" fill="#F3F6F9"/>
</g>
<defs>
<filter id="filter0_d" x="13" y="27" width="33" height="23.4194" filterUnits="userSpaceOnUse" color-interpolation-filters="sRGB">
<feFlood flood-opacity="0" result="BackgroundImageFix"/>
<feColorMatrix in="SourceAlpha" type="matrix" values="0 0 0 0 0 0 0 0 0 0 0 0 0 0 0 0 0 0 127 0"/>
<feOffset dy="2"/>
<feGaussianBlur stdDeviation="1.5"/>
<feColorMatrix type="matrix" values="0 0 0 0 0 0 0 0 0 0 0 0 0 0 0 0 0 0 0.11 0"/>
<feBlend mode="normal" in2="BackgroundImageFix" result="effect1_dropShadow"/>
<feBlend mode="normal" in="SourceGraphic" in2="effect1_dropShadow" result="shape"/>
</filter>
<linearGradient id="paint0_linear" x1="31" y1="20.5" x2="35.5" y2="64" gradientUnits="userSpaceOnUse">
<stop stop-color="#34F7BE"/>
<stop offset="1" stop-color="#5A88FD"/>
</linearGradient>
</defs>
</svg>
